<svg xmlns="http://www.w3.org/2000/svg" viewBox="0 0 725 720" width="725" height="720">
<style>polygon{fill:rgba(0,0,0,0);stroke:rgba(255,255,255,0);cursor:pointer;} polygon:hover{stroke:rgba(255,255,0,0.9);stroke-width:2;}</style>
<polygon id="t1" data-comp="1" points="117.0,119.5 110.0,117.5 102.0,111.5 76.5,81.0 44.5,52.0 45.0,31.5 67.5,32.0 61.5,37.0 66.5,48.0 117.0,119.5"/>
<polygon id="t2" data-comp="2" points="126.0,119.5 121.5,118.0 71.5,48.0 67.5,39.0 76.0,31.5 117.0,31.5 167.5,112.0 168.0,115.5 126.0,119.5"/>
<polygon id="t3" data-comp="3" points="136.0,50.5 125.5,35.0 125.0,31.5 142.5,32.0 136.0,50.5"/>
<polygon id="t4" data-comp="4" points="167.0,100.5 140.5,58.0 143.5,50.0 152.0,31.5 195.0,31.5 167.0,100.5"/>
<polygon id="t5" data-comp="5" points="247.0,54.5 209.0,40.5 200.5,34.0 202.0,31.5 251.0,31.5 247.0,54.5"/>
<polygon id="t6" data-comp="6" points="342.0,150.5 329.0,148.5 320.5,142.0 317.5,131.0 327.5,108.0 327.5,100.0 320.0,91.5 308.0,87.5 296.0,91.5 285.5,103.0 273.0,146.5 240.5,139.0 249.5,67.0 258.0,34.5 336.0,59.5 395.5,82.0 383.5,132.0 342.0,150.5"/>
<polygon id="t7" data-comp="7" points="178.0,117.5 174.5,116.0 170.5,106.0 201.0,41.5 245.5,61.0 238.0,111.5 178.0,117.5"/>
<polygon id="t8" data-comp="8" points="84.0,110.5 75.0,105.5 58.0,105.5 52.0,98.5 44.5,98.0 45.0,60.5 58.0,70.5 84.5,98.0 90.5,106.0 84.0,110.5"/>
<polygon id="t9" data-comp="9" points="500.0,203.5 416.5,185.0 421.5,175.0 432.0,168.5 490.0,159.5 497.5,151.0 498.5,142.0 493.0,133.5 484.0,128.5 439.0,113.5 423.0,114.5 387.0,130.5 399.0,82.5 471.0,110.5 493.0,121.5 502.5,130.0 508.5,146.0 509.5,159.0 504.5,189.0 500.0,203.5"/>
<polygon id="t10" data-comp="10" points="295.0,224.5 284.0,223.5 276.5,218.0 268.5,202.0 266.5,191.0 289.5,107.0 300.0,95.5 311.0,93.5 319.0,97.5 322.5,104.0 312.5,128.0 313.5,140.0 322.0,150.5 332.0,155.5 344.0,155.5 378.0,140.5 380.5,141.0 380.5,144.0 365.0,214.5 346.0,209.5 339.0,209.5 295.0,224.5"/>
<polygon id="t11" data-comp="11" points="46.0,147.5 44.5,147.0 44.5,105.0 49.0,102.5 57.0,110.5 75.0,109.5 79.0,111.5 80.5,113.0 46.0,147.5"/>
<polygon id="t12" data-comp="12" points="78.0,180.5 53.5,146.0 90.0,111.5 99.5,122.0 112.5,149.0 78.0,180.5"/>
<polygon id="t13" data-comp="13" points="219.0,186.5 191.5,142.0 205.0,119.5 237.0,115.5 232.5,156.0 219.0,186.5"/>
<polygon id="t14" data-comp="14" points="412.0,181.5 376.5,174.0 382.5,142.0 385.0,137.5 423.0,120.5 433.0,118.5 470.0,128.5 487.0,135.5 491.5,140.0 492.5,149.0 489.0,153.5 481.0,156.5 456.0,158.5 430.0,163.5 421.0,168.5 415.5,174.0 412.0,181.5"/>
<polygon id="t15" data-comp="15" points="189.0,136.5 178.5,122.0 197.0,119.5 197.5,122.0 189.0,136.5"/>
<polygon id="t16" data-comp="16" points="150.0,214.5 133.5,167.0 109.0,121.5 115.0,123.5 145.0,122.5 179.5,175.0 179.5,178.0 150.0,214.5"/>
<polygon id="t17" data-comp="17" points="210.0,213.5 201.5,203.0 151.0,122.5 172.0,121.5 176.5,127.0 218.5,194.0 210.0,213.5"/>
<polygon id="t18" data-comp="18" points="349.0,273.5 278.0,252.5 201.5,251.0 209.5,240.0 214.5,221.0 236.5,165.0 240.0,142.5 271.5,150.0 261.5,187.0 261.5,197.0 268.5,216.0 277.0,225.5 286.0,229.5 295.0,229.5 324.0,222.5 359.5,231.0 349.0,273.5"/>
<polygon id="t19" data-comp="19" points="52.0,216.5 44.5,207.0 44.5,156.0 50.0,150.5 76.5,189.0 69.5,199.0 52.0,216.5"/>
<polygon id="t20" data-comp="20" points="151.0,251.5 46.0,251.5 44.5,250.0 44.5,216.0 51.0,222.5 91.0,247.5 94.0,248.5 98.0,245.5 126.5,219.0 122.5,188.0 124.5,179.0 114.5,157.0 114.5,154.0 119.0,150.5 132.5,178.0 142.5,206.0 151.5,243.0 152.5,250.0 151.0,251.5"/>
<polygon id="t21" data-comp="21" points="94.0,243.5 90.0,242.5 55.5,219.0 82.5,191.0 78.5,184.0 110.0,157.5 118.5,176.0 122.5,217.0 94.0,243.5"/>
<polygon id="t22" data-comp="22" points="439.0,286.5 433.0,286.5 429.5,283.0 427.5,256.0 419.5,241.0 412.0,233.5 397.0,225.5 367.5,216.0 376.0,176.5 411.0,184.5 411.5,197.0 417.5,209.0 445.5,236.0 449.5,242.0 452.5,250.0 452.5,263.0 445.5,282.0 439.0,286.5"/>
<polygon id="t23" data-comp="23" points="194.0,251.5 158.0,251.5 150.5,218.0 181.0,179.5 201.5,209.0 209.5,224.0 203.5,242.0 194.0,251.5"/>
<polygon id="t24" data-comp="24" points="488.0,313.5 436.0,299.5 421.5,289.0 430.0,291.5 441.0,291.5 445.0,289.5 450.5,284.0 454.5,276.0 458.5,255.0 457.5,247.0 450.5,234.0 420.5,204.0 416.5,196.0 416.0,187.5 499.5,206.0 495.5,224.0 494.5,244.0 497.5,258.0 506.5,273.0 488.0,313.5"/>
<polygon id="t25" data-comp="25" points="361.0,225.5 346.0,220.5 329.5,218.0 340.0,214.5 348.0,215.5 362.0,219.5 361.0,225.5"/>
<polygon id="t26" data-comp="26" points="423.0,282.5 417.5,277.0 416.5,266.0 410.5,249.0 402.0,240.5 391.0,234.5 364.0,226.5 366.0,220.5 395.0,230.5 409.0,238.5 414.5,244.0 422.5,260.0 423.0,282.5"/>
<polygon id="t27" data-comp="27" points="417.0,293.5 351.5,274.0 362.0,231.5 389.0,239.5 399.0,245.5 406.5,253.0 410.5,262.0 412.5,284.0 417.0,293.5"/>
<polygon id="t28" data-comp="28" points="263.0,299.5 241.0,298.5 227.5,292.0 228.0,257.5 241.0,257.5 243.0,254.5 256.0,254.5 258.0,256.5 272.0,256.5 273.5,258.0 276.5,267.0 274.5,292.0 272.0,298.5 263.0,299.5"/>
<polygon id="t29" data-comp="29" points="47.0,326.5 44.5,325.0 44.5,258.0 107.0,257.5 66.5,271.0 68.5,319.0 63.0,324.5 47.0,326.5"/>
<polygon id="t30" data-comp="30" points="223.0,293.5 127.0,293.5 126.5,258.0 223.0,257.5 223.0,293.5"/>
<polygon id="t31" data-comp="31" points="277.0,376.5 275.0,376.5 272.5,372.0 242.5,303.0 274.0,303.5 275.5,302.0 280.5,283.0 280.5,269.0 278.5,263.0 280.0,259.5 304.5,267.0 315.5,359.0 277.0,376.5"/>
<polygon id="t32" data-comp="32" points="77.0,319.5 72.5,318.0 70.5,273.0 118.0,260.5 118.5,318.0 77.0,319.5"/>
<polygon id="t33" data-comp="33" points="319.0,358.5 317.5,358.0 307.0,267.5 372.5,287.0 361.5,340.0 319.0,358.5"/>
<polygon id="t34" data-comp="34" points="548.0,307.5 505.0,290.5 504.5,286.0 509.5,275.0 514.0,275.5 516.0,278.5 520.0,277.5 530.0,281.5 537.0,287.5 540.0,285.5 549.0,289.5 549.5,292.0 554.5,295.0 548.0,307.5"/>
<polygon id="t35" data-comp="35" points="436.0,353.5 363.5,339.0 375.0,287.5 445.5,308.0 436.0,353.5"/>
<polygon id="t36" data-comp="36" points="568.0,316.5 553.5,310.0 560.0,294.5 564.0,295.5 565.0,299.5 573.5,303.0 568.0,316.5"/>
<polygon id="t37" data-comp="37" points="540.0,328.5 494.0,316.5 501.5,297.0 503.0,295.5 507.0,296.5 546.0,312.5 540.0,328.5"/>
<polygon id="t38" data-comp="38" points="241.0,406.5 239.0,406.5 178.0,345.5 172.5,345.0 173.0,297.5 228.0,297.5 240.5,304.0 272.5,376.0 271.0,380.5 241.0,406.5"/>
<polygon id="t39" data-comp="39" points="168.0,345.5 126.5,345.0 127.0,298.5 169.5,299.0 168.0,345.5"/>
<polygon id="t40" data-comp="40" points="597.0,330.5 573.5,319.0 573.5,315.0 579.0,304.5 592.0,309.5 594.0,312.5 603.5,317.0 597.0,330.5"/>
<polygon id="t41" data-comp="41" points="545.0,373.5 440.0,354.5 447.5,309.0 557.0,340.5 556.5,346.0 545.0,373.5"/>
<polygon id="t42" data-comp="42" points="560.0,335.5 545.5,331.0 552.0,315.5 565.5,322.0 560.0,335.5"/>
<polygon id="t43" data-comp="43" points="635.0,365.5 596.5,350.0 596.5,344.0 601.5,337.0 600.5,334.0 603.5,331.0 608.0,318.5 646.5,334.0 645.5,341.0 635.0,365.5"/>
<polygon id="t44" data-comp="44" points="119.0,354.5 67.0,354.5 65.5,327.0 68.0,324.5 119.0,323.5 120.5,347.0 119.0,354.5"/>
<polygon id="t45" data-comp="45" points="590.0,347.5 566.5,337.0 571.0,325.5 595.5,336.0 590.0,347.5"/>
<polygon id="t46" data-comp="46" points="120.0,403.5 111.0,392.5 105.0,389.5 75.0,383.5 56.0,373.5 44.5,362.0 44.5,331.0 62.5,329.0 63.0,358.5 120.0,358.5 120.0,403.5"/>
<polygon id="t47" data-comp="47" points="682.0,385.5 639.5,368.0 652.0,341.5 662.0,347.5 667.0,345.5 693.5,358.0 682.0,385.5"/>
<polygon id="t48" data-comp="48" points="377.0,441.5 374.5,441.0 357.5,400.0 355.5,391.0 355.5,377.0 362.5,344.0 368.0,342.5 436.0,355.5 437.5,431.0 415.0,431.5 377.0,441.5"/>
<polygon id="t49" data-comp="49" points="646.0,414.5 552.0,373.5 550.5,370.0 562.5,343.0 659.0,382.5 659.5,385.0 646.0,414.5"/>
<polygon id="t50" data-comp="50" points="337.0,463.5 321.0,450.5 307.5,450.0 276.5,379.0 360.0,343.5 353.5,378.0 350.5,380.0 350.5,399.0 370.5,445.0 337.0,463.5"/>
<polygon id="t51" data-comp="51" points="200.0,441.5 158.5,397.0 147.5,389.0 177.0,349.5 179.0,349.5 237.5,408.0 200.0,441.5"/>
<polygon id="t52" data-comp="52" points="144.0,386.5 126.5,377.0 126.5,351.0 169.0,351.5 144.0,386.5"/>
<polygon id="t53" data-comp="53" points="467.0,431.5 439.5,431.0 438.5,358.0 440.0,356.5 515.5,371.0 517.5,429.0 516.0,430.5 467.0,431.5"/>
<polygon id="t54" data-comp="54" points="120.0,482.5 44.5,482.0 45.0,369.5 66.0,384.5 107.0,394.5 114.5,401.0 120.5,416.0 120.0,482.5"/>
<polygon id="t55" data-comp="55" points="567.0,429.5 519.5,429.0 518.0,371.5 546.0,376.5 580.5,392.0 578.5,428.0 567.0,429.5"/>
<polygon id="t56" data-comp="56" points="305.0,468.5 226.0,468.5 202.5,443.0 274.0,380.5 305.5,450.0 305.0,468.5"/>
<polygon id="t57" data-comp="57" points="127.0,423.5 127.0,382.5 148.5,395.0 127.0,423.5"/>
<polygon id="t58" data-comp="58" points="666.0,422.5 651.5,417.0 664.0,385.5 678.5,392.0 677.5,398.0 666.0,422.5"/>
<polygon id="t59" data-comp="59" points="614.0,428.5 580.5,428.0 583.0,393.5 658.5,427.0 614.0,428.5"/>
<polygon id="t60" data-comp="60" points="165.0,493.5 126.5,431.0 154.0,396.5 198.5,443.0 165.0,493.5"/>
<polygon id="t61" data-comp="61" points="619.0,532.5 567.5,531.0 567.5,510.0 580.5,432.0 662.0,429.5 619.0,532.5"/>
<polygon id="t62" data-comp="62" points="564.0,513.5 522.5,512.0 521.0,432.5 577.5,432.0 564.0,513.5"/>
<polygon id="t63" data-comp="63" points="519.0,512.5 440.0,511.5 439.5,435.0 441.0,433.5 517.0,432.5 519.0,512.5"/>
<polygon id="t64" data-comp="64" points="136.0,536.5 118.5,505.0 119.5,489.0 126.5,488.0 126.0,434.5 163.5,496.0 136.0,536.5"/>
<polygon id="t65" data-comp="65" points="434.0,469.5 403.0,469.5 402.5,441.0 415.0,437.5 433.0,436.5 434.5,438.0 434.0,469.5"/>
<polygon id="t66" data-comp="66" points="396.0,466.5 376.5,466.0 376.5,447.0 379.0,444.5 386.0,442.5 396.5,443.0 396.0,466.5"/>
<polygon id="t67" data-comp="67" points="223.0,524.5 167.5,496.0 200.0,446.5 223.5,470.0 223.0,524.5"/>
<polygon id="t68" data-comp="68" points="396.0,510.5 356.0,510.5 355.5,465.0 341.5,464.0 371.0,448.5 372.0,471.5 396.5,473.0 396.0,510.5"/>
<polygon id="t69" data-comp="69" points="288.0,499.5 276.5,499.0 276.5,474.0 305.0,473.5 307.0,471.5 312.0,471.5 312.5,456.0 317.0,455.5 317.5,498.0 288.0,499.5"/>
<polygon id="t70" data-comp="70" points="333.0,553.5 323.5,553.0 324.0,460.5 333.5,469.0 333.0,553.5"/>
<polygon id="t71" data-comp="71" points="350.0,529.5 339.5,529.0 340.0,468.5 350.5,469.0 350.0,529.5"/>
<polygon id="t72" data-comp="72" points="231.0,512.5 229.5,512.0 230.0,472.5 273.5,474.0 273.0,499.5 231.0,512.5"/>
<polygon id="t73" data-comp="73" points="433.0,511.5 402.5,510.0 403.0,472.5 434.5,473.0 434.5,510.0 433.0,511.5"/>
<polygon id="t74" data-comp="74" points="65.0,597.5 44.5,597.0 45.0,485.5 65.5,486.0 65.0,597.5"/>
<polygon id="t75" data-comp="75" points="132.0,598.5 71.5,597.0 73.0,488.5 116.5,489.0 116.5,502.0 114.0,501.5 113.5,505.0 132.5,539.0 132.0,598.5"/>
<polygon id="t76" data-comp="76" points="199.0,584.5 180.0,564.5 170.0,560.5 151.0,557.5 142.5,550.0 137.5,542.0 138.5,537.0 165.0,498.5 223.5,528.0 223.5,568.0 199.0,584.5"/>
<polygon id="t77" data-comp="77" points="317.0,553.5 275.5,553.0 275.5,508.0 277.0,501.5 317.5,502.0 317.0,553.5"/>
<polygon id="t78" data-comp="78" points="273.0,553.5 230.0,553.5 229.5,516.0 273.0,502.5 273.0,553.5"/>
<polygon id="t79" data-comp="79" points="434.0,531.5 403.0,530.5 402.5,515.0 411.0,516.5 412.0,514.5 415.0,514.5 416.0,516.5 421.0,516.5 422.0,514.5 425.0,514.5 429.0,517.5 434.0,514.5 434.0,531.5"/>
<polygon id="t80" data-comp="80" points="390.0,580.5 361.5,580.0 362.0,515.5 390.5,516.0 390.0,580.5"/>
<polygon id="t81" data-comp="81" points="477.0,588.5 445.5,588.0 446.0,516.5 476.0,516.5 477.5,518.0 477.0,588.5"/>
<polygon id="t82" data-comp="82" points="560.0,558.5 528.0,557.5 526.0,545.5 484.0,545.5 483.5,519.0 561.0,518.5 561.5,556.0 560.0,558.5"/>
<polygon id="t83" data-comp="83" points="355.0,553.5 338.5,553.0 338.5,536.0 354.0,534.5 355.0,521.5 355.0,553.5"/>
<polygon id="t84" data-comp="84" points="434.0,577.5 402.5,577.0 403.0,533.5 434.5,534.0 434.0,577.5"/>
<polygon id="t85" data-comp="85" points="604.0,590.5 566.5,590.0 566.5,540.0 568.0,534.5 617.5,536.0 607.5,559.0 605.5,589.0 604.0,590.5"/>
<polygon id="t86" data-comp="86" points="171.0,648.5 134.5,648.0 136.0,545.5 139.5,552.0 149.0,560.5 158.0,563.5 172.0,564.5 178.0,567.5 205.5,599.0 205.5,605.0 202.5,610.0 202.5,632.0 189.0,633.5 182.0,636.5 171.0,648.5"/>
<polygon id="t87" data-comp="87" points="521.0,590.5 483.5,589.0 484.0,552.5 521.5,553.0 521.0,590.5"/>
<polygon id="t88" data-comp="88" points="355.0,580.5 337.5,580.0 337.5,563.0 340.0,558.5 355.5,559.0 355.0,580.5"/>
<polygon id="t89" data-comp="89" points="271.0,632.5 229.5,632.0 230.0,559.5 272.5,560.0 271.0,632.5"/>
<polygon id="t90" data-comp="90" points="317.0,632.5 273.5,632.0 274.5,565.0 276.0,559.5 317.5,560.0 317.0,580.5 276.5,581.0 277.0,586.5 317.5,587.0 317.0,632.5"/>
<polygon id="t91" data-comp="91" points="333.0,580.5 323.5,580.0 324.0,559.5 333.5,560.0 333.0,580.5"/>
<polygon id="t92" data-comp="92" points="560.0,590.5 528.0,590.5 527.5,561.0 560.0,560.5 560.0,590.5"/>
<polygon id="t93" data-comp="93" points="223.0,632.5 206.5,632.0 206.5,611.0 209.5,605.0 209.5,599.0 200.5,587.0 223.0,571.5 223.0,632.5"/>
<polygon id="t94" data-comp="94" points="434.0,632.5 402.5,632.0 403.0,583.5 424.0,582.5 434.5,584.0 434.0,632.5"/>
<polygon id="t95" data-comp="95" points="332.0,633.5 323.5,633.0 324.0,586.5 333.5,587.0 333.5,632.0 332.0,633.5"/>
<polygon id="t96" data-comp="96" points="355.0,633.5 339.5,633.0 340.0,586.5 355.5,587.0 355.0,633.5"/>
<polygon id="t97" data-comp="97" points="390.0,633.5 363.0,633.5 361.5,632.0 362.0,586.5 390.5,587.0 390.0,633.5"/>
<polygon id="t98" data-comp="98" points="500.0,632.5 446.0,632.5 445.5,592.0 473.5,592.0 473.0,606.5 465.0,606.5 463.0,602.5 451.0,602.5 449.5,604.0 449.5,618.0 451.0,619.5 463.0,619.5 466.0,611.5 499.0,611.5 500.0,632.5"/>
<polygon id="t99" data-comp="99" points="499.0,607.5 476.0,607.5 475.5,592.0 477.0,591.5 478.0,594.5 499.0,594.5 499.0,607.5"/>
<polygon id="t100" data-comp="100" points="602.0,632.5 565.5,632.0 566.5,596.0 569.0,593.5 596.0,593.5 598.0,595.5 604.5,596.0 602.0,632.5"/>
<polygon id="t101" data-comp="101" points="520.0,633.5 507.0,633.5 505.5,632.0 506.0,595.5 521.5,596.0 521.5,632.0 520.0,633.5"/>
<polygon id="t102" data-comp="102" points="559.0,633.5 527.5,633.0 528.0,595.5 560.5,596.0 560.5,632.0 559.0,633.5"/>
<polygon id="t103" data-comp="103" points="131.0,648.5 46.0,648.5 44.5,647.0 44.5,601.0 132.0,601.5 132.5,647.0 131.0,648.5"/>
<polygon id="t104" data-comp="105" points="349.0,648.5 182.0,648.5 181.5,647.0 192.0,641.5 338.0,641.5 349.0,648.5"/>
<polygon id="t105" data-comp="106" points="531.0,648.5 371.0,648.5 354.5,642.0 532.0,641.5 531.0,648.5"/>
<polygon id="t106" data-comp="107" points="619.0,650.5 603.0,648.5 534.5,648.0 539.5,647.0 540.0,641.5 607.0,641.5 619.0,650.5"/>
<polygon id="t107" data-comp="108" points="136.0,717.5 94.0,717.5 90.0,712.5 80.0,713.5 71.0,686.5 46.0,686.5 45.5,685.0 141.0,684.5 141.5,693.0 138.5,694.0 138.5,714.0 136.0,717.5"/>
<polygon id="t108" data-comp="109" points="167.0,710.5 144.5,710.0 145.0,684.5 173.5,685.0 178.5,693.0 167.0,710.5"/>
<polygon id="t109" data-comp="110" points="339.0,691.5 197.0,691.5 189.0,689.5 183.0,685.5 176.5,685.0 352.0,684.5 339.0,691.5"/>
<polygon id="t110" data-comp="111" points="531.0,690.5 359.5,690.0 372.0,684.5 533.0,684.5 531.0,690.5"/>
<polygon id="t111" data-comp="112" points="571.0,691.5 540.0,691.5 539.5,685.0 568.0,684.5 572.5,686.0 571.0,691.5"/>
<polygon id="t112" data-comp="113" points="628.0,717.5 574.0,717.5 574.5,686.0 576.0,684.5 609.0,685.5 620.0,687.5 633.0,693.5 641.0,699.5 643.5,704.0 628.0,717.5"/>
<polygon id="t113" data-comp="114" points="75.0,717.5 45.0,717.5 44.5,692.0 68.0,691.5 75.0,717.5"/>
<polygon id="t114" data-comp="115" points="668.0,717.5 665.0,717.5 640.5,692.0 652.0,693.5 687.0,703.5 668.0,717.5"/>
<polygon id="t115" data-comp="116" points="218.0,717.5 188.0,717.5 170.5,711.0 181.0,694.5 192.0,698.5 216.0,698.5 218.0,717.5"/>
<polygon id="t116" data-comp="117" points="343.0,717.5 316.0,717.5 315.5,699.0 343.0,698.5 343.0,717.5"/>
<polygon id="t117" data-comp="118" points="382.0,717.5 352.0,717.5 351.5,699.0 382.0,698.5 382.0,717.5"/>
<polygon id="t118" data-comp="119" points="495.0,717.5 431.0,717.5 430.5,699.0 495.0,698.5 495.0,717.5"/>
<polygon id="t119" data-comp="120" points="531.0,717.5 503.0,717.5 502.5,699.0 531.0,698.5 531.0,717.5"/>
<polygon id="t120" data-comp="121" points="566.0,717.5 540.0,717.5 539.5,699.0 566.0,698.5 566.0,717.5"/>
<polygon id="t121" data-comp="122" points="252.0,717.5 226.0,717.5 223.5,700.0 249.0,699.5 252.0,717.5"/>
<polygon id="t122" data-comp="123" points="308.0,717.5 260.0,717.5 256.5,700.0 308.0,699.5 308.0,717.5"/>
<polygon id="t123" data-comp="124" points="422.0,717.5 390.0,717.5 389.5,700.0 422.0,699.5 422.0,717.5"/>
</svg>